<?xml version="1.0" encoding="UTF-8"?>
<svg id="Layer_2" xmlns="http://www.w3.org/2000/svg" xmlns:xlink="http://www.w3.org/1999/xlink" viewBox="0 0 83.66 83.66">
  <defs>
    <style>
      .cls-1 {
        fill: #fed007;
      }
    </style>
    <symbol id="MediumLogo" viewBox="0 0 83.66 157.29">
      <g>
        
        <g>
          <path class="cls-1" d="M67.12,19.54v19.89h16.55v-23.11C83.66,6.67,77,0,67.35,0h-23.11v15.63h18.97c2.53,0,3.91,1.38,3.91,3.91Z"/>
          <path class="cls-1" d="M67.12,44.12v20.01c0,2.53-1.38,3.91-3.91,3.91h-7.8c-.02-.34-.03-.67-.05-1.01l7.29-3.89c-.47-3.32-1.26-6.58-2.36-9.74l-8.26-.12c-1.11-2.62-2.48-5.12-4.08-7.48l4.37-7.02c-2.06-2.64-4.38-5.07-6.91-7.25l-7.22,4.02c-2.27-1.71-4.71-3.2-7.27-4.43l.27-8.26c-3.1-1.25-6.32-2.2-9.61-2.83l-4.24,7.09c-.26-.03-.52-.05-.78-.08v-7.51c0-2.53,1.38-3.91,3.91-3.91h19.09V0h-23.22C6.67,0,0,6.67,0,16.32v51.03c0,9.65,6.67,16.32,16.32,16.32h51.03c9.65,0,16.32-6.67,16.32-16.32v-23.22h-16.55ZM16.55,64.13v-20.86c10.48,1.76,19.43,9.56,22.09,20.53.34,1.42.56,2.83.67,4.24h-18.86c-2.53,0-3.91-1.38-3.91-3.91Z"/>
        </g>
      </g>
    </symbol>
  </defs>
  <g id="Medium_Logo">
    <use width="83.66" height="157.29" xlink:href="#MediumLogo"/>
  </g>
</svg>