<?xml version="1.0" encoding="UTF-8"?>
<svg id="Layer_2" xmlns="http://www.w3.org/2000/svg" xmlns:xlink="http://www.w3.org/1999/xlink" viewBox="0 0 83.66 81.17">
  <defs>
    <style>
      .cls-1 {
        fill: #fed007;
      }
    </style>
    <symbol id="SmolLogo" viewBox="0 0 83.66 81.17">
      <g>
        <g>
          <path class="cls-1" d="M22.81,23.42h-3.2v-2.19h8.84v2.19h-3.2v9.61h-2.43v-9.61Z"/>
          <path class="cls-1" d="M30.19,21.22h7.94v2.23h-5.51v2.44h4.47v2.19h-4.47v2.71h5.51v2.23h-7.94v-11.8Z"/>
          <path class="cls-1" d="M46.55,30.46h-4.05l-.73,2.56h-2.56l3.59-11.8h3.54l3.59,11.8h-2.66l-.73-2.56ZM45.93,28.24l-1.4-4.96-1.4,4.96h2.8Z"/>
          <path class="cls-1" d="M51.55,21.22h2.66l3.14,6.95,3.14-6.95h2.66v11.8h-2.39v-7.52l-2.55,5.95h-1.79l-2.55-5.95v7.52h-2.33v-11.8Z"/>
        </g>
        <g>
          <path class="cls-1" d="M23.32,43.36l-3.87,1.36v-3.55l4.76-2.25h3.37v21.29h-4.26v-16.86Z"/>
          <path class="cls-1" d="M31.57,38.92h10.14l-2.22,4.02h-7.92v-4.02ZM46.77,42.18l-10,18.04h-4.67l11.8-21.29h2.87v3.25Z"/>
          <path class="cls-1" d="M53.01,60.33c-2.37,0-4.26-1.89-4.26-4.26v-3.55c0-1.27.62-2.48,2.1-3.19-1.36-.8-1.86-1.92-1.86-3.19v-3.08c0-2.37,1.89-4.26,4.26-4.26h1.95v3.96h-.77c-.77,0-1.18.41-1.18,1.18v2.31c0,.95.36,1.18,1.18,1.18h3.67c.83,0,1.18-.24,1.18-1.18v-2.31c0-.77-.41-1.18-1.18-1.18h-.77v-3.96h1.95c2.37,0,4.26,1.89,4.26,4.26v3.08c0,1.27-.5,2.4-1.86,3.19,1.48.71,2.1,1.92,2.1,3.19v3.55c0,2.37-1.89,4.26-4.26,4.26h-2.19v-3.96h1c.77,0,1.18-.41,1.18-1.18v-2.78c0-.89-.59-1.18-1.42-1.18h-3.67c-.83,0-1.42.29-1.42,1.18v2.78c0,.77.41,1.18,1.18,1.18h1v3.96h-2.19Z"/>
        </g>
        <g>
          <path class="cls-1" d="M67.12,19.54v18.77h16.55v-21.98C83.66,6.67,77,0,67.35,0h-23.23v15.63h19.09c2.53,0,3.91,1.38,3.91,3.91Z"/>
          <path class="cls-1" d="M67.12,42.75v18.88c0,2.53-1.38,3.91-3.91,3.91H20.46c-2.53,0-3.91-1.38-3.91-3.91V19.54c0-2.53,1.38-3.91,3.91-3.91h19.21V0h-23.35C6.67,0,0,6.67,0,16.32v48.53c0,9.65,6.67,16.32,16.32,16.32h51.03c9.65,0,16.32-6.67,16.32-16.32v-22.1h-16.55Z"/>
        </g>
      </g>
    </symbol>
  </defs>
  <g id="Smol_Logo">
    <use width="83.66" height="81.17" xlink:href="#SmolLogo"/>
  </g>
</svg>