<?xml version="1.0" encoding="UTF-8"?>
<svg id="Layer_2" xmlns="http://www.w3.org/2000/svg" xmlns:xlink="http://www.w3.org/1999/xlink" viewBox="0 0 406.32 160.48">
  <defs>
    <style>
      .cls-1 {
        fill: #fed007;
      }
    </style>
    <symbol id="MainLogo" viewBox="0 0 406.32 160.48">
      <g>
        <g id="Deleted_Symbol">
          <path class="cls-1" d="M160.15,86.34c-1.65-6.8-7.2-11.63-13.69-12.73v12.93c0,1.57.85,2.42,2.42,2.42h11.69c-.07-.87-.21-1.75-.42-2.62ZM160.15,86.34c-1.65-6.8-7.2-11.63-13.69-12.73v12.93c0,1.57.85,2.42,2.42,2.42h11.69c-.07-.87-.21-1.75-.42-2.62ZM160.15,86.34c-1.65-6.8-7.2-11.63-13.69-12.73v12.93c0,1.57.85,2.42,2.42,2.42h11.69c-.07-.87-.21-1.75-.42-2.62ZM160.15,86.34c-1.65-6.8-7.2-11.63-13.69-12.73v12.93c0,1.57.85,2.42,2.42,2.42h11.69c-.07-.87-.21-1.75-.42-2.62ZM160.15,86.34c-1.65-6.8-7.2-11.63-13.69-12.73v12.93c0,1.57.85,2.42,2.42,2.42h11.69c-.07-.87-.21-1.75-.42-2.62ZM160.15,86.34c-1.65-6.8-7.2-11.63-13.69-12.73v12.93c0,1.57.85,2.42,2.42,2.42h11.69c-.07-.87-.21-1.75-.42-2.62ZM160.15,86.34c-1.65-6.8-7.2-11.63-13.69-12.73v12.93c0,1.57.85,2.42,2.42,2.42h11.69c-.07-.87-.21-1.75-.42-2.62ZM160.15,86.34c-1.65-6.8-7.2-11.63-13.69-12.73v12.93c0,1.57.85,2.42,2.42,2.42h11.69c-.07-.87-.21-1.75-.42-2.62ZM160.15,86.34c-1.65-6.8-7.2-11.63-13.69-12.73v12.93c0,1.57.85,2.42,2.42,2.42h11.69c-.07-.87-.21-1.75-.42-2.62ZM160.15,86.34c-1.65-6.8-7.2-11.63-13.69-12.73v12.93c0,1.57.85,2.42,2.42,2.42h11.69c-.07-.87-.21-1.75-.42-2.62ZM160.15,86.34c-1.65-6.8-7.2-11.63-13.69-12.73v12.93c0,1.57.85,2.42,2.42,2.42h11.69c-.07-.87-.21-1.75-.42-2.62ZM160.15,86.34c-1.65-6.8-7.2-11.63-13.69-12.73v12.93c0,1.57.85,2.42,2.42,2.42h11.69c-.07-.87-.21-1.75-.42-2.62ZM160.15,86.34c-1.65-6.8-7.2-11.63-13.69-12.73v12.93c0,1.57.85,2.42,2.42,2.42h11.69c-.07-.87-.21-1.75-.42-2.62ZM160.15,86.34c-1.65-6.8-7.2-11.63-13.69-12.73v12.93c0,1.57.85,2.42,2.42,2.42h11.69c-.07-.87-.21-1.75-.42-2.62ZM160.15,86.34c-1.65-6.8-7.2-11.63-13.69-12.73v12.93c0,1.57.85,2.42,2.42,2.42h11.69c-.07-.87-.21-1.75-.42-2.62ZM160.15,86.34c-1.65-6.8-7.2-11.63-13.69-12.73v12.93c0,1.57.85,2.42,2.42,2.42h11.69c-.07-.87-.21-1.75-.42-2.62ZM160.15,86.34c-1.65-6.8-7.2-11.63-13.69-12.73v12.93c0,1.57.85,2.42,2.42,2.42h11.69c-.07-.87-.21-1.75-.42-2.62ZM160.15,86.34c-1.65-6.8-7.2-11.63-13.69-12.73v12.93c0,1.57.85,2.42,2.42,2.42h11.69c-.07-.87-.21-1.75-.42-2.62ZM160.15,86.34c-1.65-6.8-7.2-11.63-13.69-12.73v12.93c0,1.57.85,2.42,2.42,2.42h11.69c-.07-.87-.21-1.75-.42-2.62ZM160.15,86.34c-1.65-6.8-7.2-11.63-13.69-12.73v12.93c0,1.57.85,2.42,2.42,2.42h11.69c-.07-.87-.21-1.75-.42-2.62ZM160.15,86.34c-1.65-6.8-7.2-11.63-13.69-12.73v12.93c0,1.57.85,2.42,2.42,2.42h11.69c-.07-.87-.21-1.75-.42-2.62ZM217.28,14.6h-2.99v6.6h2.99c.23,0,.31-.08.31-.31v-5.98c0-.24-.08-.31-.31-.31ZM160.15,86.34c-1.65-6.8-7.2-11.63-13.69-12.73v12.93c0,1.57.85,2.42,2.42,2.42h11.69c-.07-.87-.21-1.75-.42-2.62ZM217.28,14.6h-2.99v6.6h2.99c.23,0,.31-.08.31-.31v-5.98c0-.24-.08-.31-.31-.31ZM160.15,86.34c-1.65-6.8-7.2-11.63-13.69-12.73v12.93c0,1.57.85,2.42,2.42,2.42h11.69c-.07-.87-.21-1.75-.42-2.62ZM217.28,14.6h-2.99v6.6h2.99c.23,0,.31-.08.31-.31v-5.98c0-.24-.08-.31-.31-.31ZM260.08,16.26l-2.9,10.3h5.81l-2.91-10.3ZM160.15,86.34c-1.65-6.8-7.2-11.63-13.69-12.73v12.93c0,1.57.85,2.42,2.42,2.42h11.69c-.07-.87-.21-1.75-.42-2.62ZM217.28,14.6h-2.99v6.6h2.99c.23,0,.31-.08.31-.31v-5.98c0-.24-.08-.31-.31-.31ZM260.08,16.26l-2.9,10.3h5.81l-2.91-10.3ZM389.27,0H17.05C7.63,0,0,7.64,0,17.05v126.38c0,9.42,7.63,17.05,17.05,17.05h372.22c9.42,0,17.05-7.63,17.05-17.05V17.05c0-9.41-7.63-17.05-17.05-17.05ZM376.07,46.52h6.12c6.05,0,10.23,4.17,10.23,10.22v6.05h-10.08v-4.03c0-1.59-.87-2.45-2.45-2.45h-3.82v-9.79ZM356.7,56.74c0-6.05,4.18-10.22,10.23-10.22h6.98v9.79h-4.39c-1.58,0-2.45.86-2.45,2.45v4.89c0,1.59.87,2.09,2.45,2.45l13.4,2.88c5.61,1.23,10.36,4.61,10.36,10.37v9.36c0,6.05-4.17,10.23-10.22,10.23h-6.99v-9.8h4.4c1.58,0,2.45-.86,2.45-2.44v-5.48c0-1.58-.87-2.09-2.45-2.44l-13.4-2.89c-5.61-1.22-10.37-4.6-10.37-10.36v-8.79ZM356.7,82.09h10.09v4.61c0,1.58.86,2.44,2.44,2.44h4.68v9.8h-6.98c-6.05,0-10.23-4.18-10.23-10.23v-6.62ZM327.69,69.77h11.31c1.58,0,2.44-.86,2.44-2.44v-8.29c0-1.58-.86-2.44-2.44-2.44h-11.31v-9.8h13.9c6.05,0,10.22,4.18,10.22,10.23v12.17c0,4.89-2.73,8.57-7.05,9.79l8.64,19.66h-11.16l-8.36-19.23h-6.19v-9.65ZM315.16,46.8h10.37v51.85h-10.37v-51.85ZM309.84,88.86v9.79h-21.39v-9.79h21.39ZM288.45,77.05v-9.8h16.92v9.8h-16.92ZM288.45,56.6v-9.8h21.39v9.8h-21.39ZM275.32,11.99l3.82,18,4.51-18h4.28l4.51,18,3.82-18h5.04l-6.16,24.51h-5.32l-4.03-15.97-4.03,15.97h-5.57l-6.12-24.51h5.25ZM286.29,46.8v51.85h-10.37v-51.85h10.37ZM256.51,11.99h7.36l7.46,24.51h-5.54l-1.5-5.32h-8.41l-1.5,5.32h-5.33l7.46-24.51ZM260.16,65.09v-6.33c0-1.59-.87-2.45-2.45-2.45h-4.54v-9.79h7.13c6.05,0,10.23,4.17,10.23,10.22v8.35h-10.37ZM270.53,80.36v8.35c0,6.05-4.18,10.23-10.23,10.23h-7.13v-9.8h4.54c1.58,0,2.45-.86,2.45-2.44v-6.34h10.37ZM246.48,89.14h4.53v9.8h-7.13c-6.05,0-10.22-4.18-10.22-10.23v-31.97c0-6.05,4.17-10.22,10.22-10.22h7.13v9.79h-4.53c-1.59,0-2.45.86-2.45,2.45v27.94c0,1.58.86,2.44,2.45,2.44ZM231.82,11.99h5.05v19.89h10.57v4.62h-15.62V11.99ZM228.55,57.03v12.17c0,4.89-2.74,8.57-7.06,9.79l8.64,19.66h-11.16l-8.35-19.23h-6.19v-9.65h11.3c1.59,0,2.45-.86,2.45-2.44v-8.29c0-1.58-.86-2.44-2.45-2.44h-11.3v-9.8h13.9c6.04,0,10.22,4.18,10.22,10.23ZM211.63,12.3h6.41c1.49,0,2.21.7,2.21,2.21v6.78c0,1.49-.72,2.21-2.21,2.21h-6.41v-11.2ZM200.16,12.3h2.71l3.95,6.58v-6.58h2.58v11.2h-2.47l-4.19-6.95v6.95h-2.58v-11.2ZM202.27,46.8v51.85h-10.37v-51.85h10.37ZM179.92,28.24c0-2.81,2.07-3.96,5.04-5.05l5.68-2.1c.91-.35,1.4-.49,1.4-1.4v-2.38c0-.52-.18-.7-.7-.7h-5.53c-.53,0-.7.18-.7.7v2.31h-4.91v-2.73c0-3.33,1.58-4.9,4.91-4.9h7.07c3.33,0,4.9,1.57,4.9,4.9v3.92c0,2.8-2.06,3.96-5.04,5.05l-5.67,2.1c-.91.35-1.41.49-1.41,1.4v2.52h12.19v4.62h-17.23v-8.26ZM188.05,56.92v14.7h-10.26v-12.71c0-1.57-.85-2.42-2.42-2.42h-12.14v-9.69h14.71c5.98,0,10.11,4.13,10.11,10.12ZM151.31,11.99h16.5v4.62h-11.46v5.08h9.28v4.55h-9.28v5.64h11.46v4.62h-16.5V11.99ZM161.09,46.8v9.69h-12.21c-1.57,0-2.42.85-2.42,2.42v4.66c.16.02.32.02.48.04l2.63-4.39c2.04.38,4.03.97,5.95,1.75l-.16,5.11c1.58.77,3.09,1.69,4.5,2.75l4.48-2.49c1.57,1.35,3,2.86,4.28,4.49l-2.71,4.35c1,1.46,1.84,3.01,2.53,4.64l5.12.07c.69,1.96,1.18,3.98,1.47,6.04l-4.52,2.41c.01.21.02.42.03.62h4.83c1.57,0,2.42-.85,2.42-2.42v-12.78h10.26v14.78c0,5.98-4.13,10.11-10.11,10.11h-31.62c-5.98,0-10.12-4.13-10.12-10.11v-31.62c0-5.99,4.14-10.12,10.12-10.12h14.77ZM127.01,11.99h5.04v9.66h8.69v-9.66h5.04v24.51h-5.04v-10.22h-8.69v10.22h-5.04V11.99ZM112.32,56.6v-9.8h21.39v9.8h-21.39ZM129.25,67.69v9.79h-16.93v-9.79h16.93ZM105.02,11.99h18.35v4.55h-6.66v19.96h-5.04v-19.96h-6.65v-4.55ZM99.8,46.8h10.37v51.85h-10.37v-51.85ZM82.52,46.8h9.72v49.33l-9.72-18.08v-31.25ZM63.44,46.8l27.94,51.85h-10.3l-27.94-51.85h10.3ZM52.28,49.32l9.72,18.08v31.25h-9.72v-49.33ZM25.57,46.8h21.38v9.8h-21.38v-9.8ZM25.57,67.25h16.92v9.8h-16.92v-9.8ZM25.57,88.86h21.38v9.79h-21.38v-9.79ZM13.04,46.8h10.37v51.85h-10.37v-51.85ZM395.37,137.65c0,6.1-4.95,11.05-11.06,11.05H22.01c-6.11,0-11.06-4.95-11.06-11.05v-18.61c0-6.11,4.95-11.06,11.06-11.06h362.3c6.11,0,11.06,4.95,11.06,11.06v18.61ZM260.08,16.26l-2.9,10.3h5.81l-2.91-10.3ZM217.28,14.6h-2.99v6.6h2.99c.23,0,.31-.08.31-.31v-5.98c0-.24-.08-.31-.31-.31ZM148.88,88.96h11.69c-.07-.87-.21-1.75-.42-2.62-1.65-6.8-7.2-11.63-13.69-12.73v12.93c0,1.57.85,2.42,2.42,2.42ZM217.28,14.6h-2.99v6.6h2.99c.23,0,.31-.08.31-.31v-5.98c0-.24-.08-.31-.31-.31ZM160.15,86.34c-1.65-6.8-7.2-11.63-13.69-12.73v12.93c0,1.57.85,2.42,2.42,2.42h11.69c-.07-.87-.21-1.75-.42-2.62ZM217.28,14.6h-2.99v6.6h2.99c.23,0,.31-.08.31-.31v-5.98c0-.24-.08-.31-.31-.31ZM160.15,86.34c-1.65-6.8-7.2-11.63-13.69-12.73v12.93c0,1.57.85,2.42,2.42,2.42h11.69c-.07-.87-.21-1.75-.42-2.62ZM160.15,86.34c-1.65-6.8-7.2-11.63-13.69-12.73v12.93c0,1.57.85,2.42,2.42,2.42h11.69c-.07-.87-.21-1.75-.42-2.62ZM160.15,86.34c-1.65-6.8-7.2-11.63-13.69-12.73v12.93c0,1.57.85,2.42,2.42,2.42h11.69c-.07-.87-.21-1.75-.42-2.62ZM160.15,86.34c-1.65-6.8-7.2-11.63-13.69-12.73v12.93c0,1.57.85,2.42,2.42,2.42h11.69c-.07-.87-.21-1.75-.42-2.62ZM160.15,86.34c-1.65-6.8-7.2-11.63-13.69-12.73v12.93c0,1.57.85,2.42,2.42,2.42h11.69c-.07-.87-.21-1.75-.42-2.62ZM160.15,86.34c-1.65-6.8-7.2-11.63-13.69-12.73v12.93c0,1.57.85,2.42,2.42,2.42h11.69c-.07-.87-.21-1.75-.42-2.62ZM160.15,86.34c-1.65-6.8-7.2-11.63-13.69-12.73v12.93c0,1.57.85,2.42,2.42,2.42h11.69c-.07-.87-.21-1.75-.42-2.62ZM160.15,86.34c-1.65-6.8-7.2-11.63-13.69-12.73v12.93c0,1.57.85,2.42,2.42,2.42h11.69c-.07-.87-.21-1.75-.42-2.62ZM160.15,86.34c-1.65-6.8-7.2-11.63-13.69-12.73v12.93c0,1.57.85,2.42,2.42,2.42h11.69c-.07-.87-.21-1.75-.42-2.62ZM160.15,86.34c-1.65-6.8-7.2-11.63-13.69-12.73v12.93c0,1.57.85,2.42,2.42,2.42h11.69c-.07-.87-.21-1.75-.42-2.62ZM160.15,86.34c-1.65-6.8-7.2-11.63-13.69-12.73v12.93c0,1.57.85,2.42,2.42,2.42h11.69c-.07-.87-.21-1.75-.42-2.62ZM160.15,86.34c-1.65-6.8-7.2-11.63-13.69-12.73v12.93c0,1.57.85,2.42,2.42,2.42h11.69c-.07-.87-.21-1.75-.42-2.62ZM160.15,86.34c-1.65-6.8-7.2-11.63-13.69-12.73v12.93c0,1.57.85,2.42,2.42,2.42h11.69c-.07-.87-.21-1.75-.42-2.62ZM160.15,86.34c-1.65-6.8-7.2-11.63-13.69-12.73v12.93c0,1.57.85,2.42,2.42,2.42h11.69c-.07-.87-.21-1.75-.42-2.62ZM160.15,86.34c-1.65-6.8-7.2-11.63-13.69-12.73v12.93c0,1.57.85,2.42,2.42,2.42h11.69c-.07-.87-.21-1.75-.42-2.62ZM160.15,86.34c-1.65-6.8-7.2-11.63-13.69-12.73v12.93c0,1.57.85,2.42,2.42,2.42h11.69c-.07-.87-.21-1.75-.42-2.62ZM160.15,86.34c-1.65-6.8-7.2-11.63-13.69-12.73v12.93c0,1.57.85,2.42,2.42,2.42h11.69c-.07-.87-.21-1.75-.42-2.62ZM160.15,86.34c-1.65-6.8-7.2-11.63-13.69-12.73v12.93c0,1.57.85,2.42,2.42,2.42h11.69c-.07-.87-.21-1.75-.42-2.62ZM160.15,86.34c-1.65-6.8-7.2-11.63-13.69-12.73v12.93c0,1.57.85,2.42,2.42,2.42h11.69c-.07-.87-.21-1.75-.42-2.62ZM160.15,86.34c-1.65-6.8-7.2-11.63-13.69-12.73v12.93c0,1.57.85,2.42,2.42,2.42h11.69c-.07-.87-.21-1.75-.42-2.62ZM160.15,86.34c-1.65-6.8-7.2-11.63-13.69-12.73v12.93c0,1.57.85,2.42,2.42,2.42h11.69c-.07-.87-.21-1.75-.42-2.62ZM160.15,86.34c-1.65-6.8-7.2-11.63-13.69-12.73v12.93c0,1.57.85,2.42,2.42,2.42h11.69c-.07-.87-.21-1.75-.42-2.62ZM160.15,86.34c-1.65-6.8-7.2-11.63-13.69-12.73v12.93c0,1.57.85,2.42,2.42,2.42h11.69c-.07-.87-.21-1.75-.42-2.62Z"/>
        </g>
        <g>
          <path class="cls-1" d="M90.71,116.85h16.14v3.85h-11.94v6.44h9.84v3.82h-9.84v10.4h-4.2v-24.51Z"/>
          <path class="cls-1" d="M129.24,141.36h-4.55l-4.52-9.14h-4.97v9.14h-4.2v-24.51h12.57c3.33,0,4.9,1.58,4.9,4.9v5.46c0,2.94-1.23,4.52-3.82,4.83l4.59,9.32ZM122.97,128.48c.95,0,1.3-.35,1.3-1.33v-5.18c0-.95-.35-1.3-1.3-1.3h-7.77v7.81h7.77Z"/>
          <path class="cls-1" d="M133.19,136.46v-14.71c0-3.33,1.58-4.9,4.9-4.9h7.84c3.33,0,4.9,1.58,4.9,4.9v3.54h-4.2v-3.29c0-.95-.35-1.3-1.3-1.3h-6.62c-.98,0-1.33.35-1.33,1.3v14.22c0,.95.35,1.29,1.33,1.29h6.62c.95,0,1.3-.35,1.3-1.29v-3.29h4.2v3.54c0,3.29-1.58,4.9-4.9,4.9h-7.84c-3.33,0-4.9-1.61-4.9-4.9Z"/>
          <path class="cls-1" d="M168.25,120.67h-6.97v-3.82h18.1v3.82h-6.93v20.7h-4.2v-20.7Z"/>
          <path class="cls-1" d="M183.31,116.85h16.14v3.85h-11.94v6.23h9.84v3.78h-9.84v6.79h11.94v3.85h-16.14v-24.51Z"/>
          <path class="cls-1" d="M217.31,135.38h-9.07l-1.86,5.99h-4.41l7.95-24.51h5.88l7.95,24.51h-4.59l-1.86-5.99ZM216.12,131.52l-3.36-10.89-3.36,10.89h6.72Z"/>
          <path class="cls-1" d="M227.46,116.85h4.73l7.07,15.58,7.07-15.58h4.73v24.51h-4.13v-17.33l-6.13,13.97h-3.22l-6.13-13.97v17.33h-3.99v-24.51Z"/>
          <path class="cls-1" d="M268.89,121.23l-4.94,1.65v-3.57l5.78-2.45h3.36v24.51h-4.2v-20.14Z"/>
          <path class="cls-1" d="M290.32,120.67h-12.68v-3.82h17.54v2.98l-10.61,21.54h-4.55l10.3-20.7Z"/>
          <path class="cls-1" d="M297.82,136.46v-3.89c0-1.86.81-3.08,2.52-3.78-1.51-.74-2.24-1.89-2.24-3.75v-3.29c0-3.33,1.58-4.9,4.9-4.9h7.42c3.33,0,4.9,1.58,4.9,4.9v3.29c0,1.86-.7,3.01-2.24,3.75,1.75.7,2.52,1.93,2.52,3.78v3.89c0,3.33-1.58,4.9-4.9,4.9h-7.98c-3.33,0-4.9-1.58-4.9-4.9ZM310.11,137.55c.95,0,1.3-.35,1.3-1.29v-4.27c0-.95-.35-1.3-1.3-1.3h-6.76c-.98,0-1.33.35-1.33,1.3v4.27c0,.95.35,1.29,1.33,1.29h6.76ZM309.83,126.94c.95,0,1.3-.35,1.3-1.33v-3.64c0-.95-.35-1.3-1.3-1.3h-6.2c-.98,0-1.33.35-1.33,1.3v3.64c0,.98.35,1.33,1.33,1.33h6.2Z"/>
        </g>
      </g>
    </symbol>
  </defs>
  <g id="Main_Logo">
    <use width="406.32" height="160.48" xlink:href="#MainLogo"/>
  </g>
</svg>